<svg id="Layer_1" data-name="Layer 1" xmlns="http://www.w3.org/2000/svg" viewBox="0 0 470 430"><defs><style>.cls-1{fill:#fff;}.cls-2,.cls-3{fill:none;}.cls-2{stroke:#fff;stroke-miterlimit:10;stroke-width:20px;}</style></defs><path class="cls-1" d="M845.2,448.79c6.32,0,9.8,3.47,9.8,4.62v339c0,1.15-3.48,4.62-9.8,4.62H434.8c-6.32,0-9.8-3.47-9.8-4.62v-339c0-1.15,3.48-4.62,9.8-4.62H845.2m0-20H434.8c-16.46,0-29.8,11-29.8,24.62v339C405,806,418.34,817,434.8,817H845.2c16.46,0,29.8-11,29.8-24.62v-339c0-13.6-13.34-24.62-29.8-24.62Z" transform="translate(-405 -387)"/><line class="cls-2" y1="128.5" x2="470" y2="128.5"/><rect class="cls-1" x="110.18" width="23.3" height="93.48" rx="11.65"/><rect class="cls-1" x="343.18" width="23.3" height="93.48" rx="11.65"/><rect class="cls-1" x="108.66" y="149.19" width="31" height="31"/><rect class="cls-1" x="182.55" y="220.57" width="31" height="31"/><rect class="cls-1" x="256.45" y="220.57" width="31" height="31"/><rect class="cls-1" x="330.34" y="220.57" width="31" height="31"/><rect class="cls-1" x="404.24" y="220.57" width="31" height="31"/><rect class="cls-1" x="34.76" y="220.57" width="31" height="31"/><rect class="cls-1" x="108.66" y="220.57" width="31" height="31"/><rect class="cls-1" x="182.55" y="149.19" width="31" height="31"/><rect class="cls-1" x="256.45" y="149.19" width="31" height="31"/><rect class="cls-1" x="330.34" y="149.19" width="31" height="31"/><rect class="cls-1" x="404.24" y="149.19" width="31" height="31"/><rect class="cls-3" x="108.66" y="151.68" width="31" height="26.01"/><rect class="cls-1" x="182.55" y="363.32" width="31" height="31"/><rect class="cls-1" x="256.45" y="363.32" width="31" height="31"/><rect class="cls-1" x="330.34" y="363.32" width="31" height="31"/><rect class="cls-1" x="34.76" y="363.32" width="31" height="31"/><rect class="cls-1" x="108.66" y="363.32" width="31" height="31"/><rect class="cls-1" x="182.55" y="291.94" width="31" height="31"/><rect class="cls-1" x="256.45" y="291.94" width="31" height="31"/><rect class="cls-1" x="330.34" y="291.94" width="31" height="31"/><rect class="cls-1" x="404.24" y="291.94" width="31" height="31"/><rect class="cls-1" x="34.76" y="291.94" width="31" height="31"/><rect class="cls-1" x="108.66" y="291.94" width="31" height="31"/><path class="cls-1" d="M640,515.5Z" transform="translate(-405 -387)"/><path class="cls-1" d="M459.59,539.86Z" transform="translate(-405 -387)"/></svg>