<svg id="Layer_1" data-name="Layer 1" xmlns="http://www.w3.org/2000/svg" viewBox="0 0 470 400"><defs><style>.cls-1{fill:#fff;}</style></defs><path class="cls-1" d="M807.64,587.62V692.38H547.36V587.62H807.64m10-10H537.36V702.38H817.64V577.62Z" transform="translate(-442.5 -440)"/><path class="cls-1" d="M531.3,450a5,5,0,0,1,5,5V825a5,5,0,0,1-5,5h-9.54a5,5,0,0,1-5-5V455a5,5,0,0,1,5-5h9.54m0-10h-9.54a15,15,0,0,0-15,15V825a15,15,0,0,0,15,15h9.54a15,15,0,0,0,15-15V455a15,15,0,0,0-15-15Z" transform="translate(-442.5 -440)"/><path class="cls-1" d="M499.17,510a5,5,0,0,1,5,5V765a5,5,0,0,1-5,5h-9.54a5,5,0,0,1-5-5V515a5,5,0,0,1,5-5h9.54m0-10h-9.54a15,15,0,0,0-15,15V765a15,15,0,0,0,15,15h9.54a15,15,0,0,0,15-15V515a15,15,0,0,0-15-15Z" transform="translate(-442.5 -440)"/><path class="cls-1" d="M467,580.12a5,5,0,0,1,5,5V694.88a5,5,0,0,1-5,5H457.5a5,5,0,0,1-5-5V585.12a5,5,0,0,1,5-5H467m0-10H457.5a15,15,0,0,0-15,15V694.88a15,15,0,0,0,15,15H467a15,15,0,0,0,15-15V585.12a15,15,0,0,0-15-15Z" transform="translate(-442.5 -440)"/><path class="cls-1" d="M833.24,450a5,5,0,0,1,5,5V825a5,5,0,0,1-5,5H823.7a5,5,0,0,1-5-5V455a5,5,0,0,1,5-5h9.54m0-10H823.7a15,15,0,0,0-15,15V825a15,15,0,0,0,15,15h9.54a15,15,0,0,0,15-15V455a15,15,0,0,0-15-15Z" transform="translate(-442.5 -440)"/><path class="cls-1" d="M865.37,510a5,5,0,0,1,5,5V765a5,5,0,0,1-5,5h-9.54a5,5,0,0,1-5-5V515a5,5,0,0,1,5-5h9.54m0-10h-9.54a15,15,0,0,0-15,15V765a15,15,0,0,0,15,15h9.54a15,15,0,0,0,15-15V515a15,15,0,0,0-15-15Z" transform="translate(-442.5 -440)"/><path class="cls-1" d="M897.5,580.12a5,5,0,0,1,5,5V694.88a5,5,0,0,1-5,5H888a5,5,0,0,1-5-5V585.12a5,5,0,0,1,5-5h9.54m0-10H888a15,15,0,0,0-15,15V694.88a15,15,0,0,0,15,15h9.54a15,15,0,0,0,15-15V585.12a15,15,0,0,0-15-15Z" transform="translate(-442.5 -440)"/></svg>