<svg id="Layer_1" data-name="Layer 1" xmlns="http://www.w3.org/2000/svg" viewBox="0 0 622 368"><defs><style>.cls-1{fill:#424242;}</style></defs><path class="cls-1" d="M640,662.13,927.56,460.78A43,43,0,0,0,907.82,456H372.18a43,43,0,0,0-19.74,4.78Z" transform="translate(-329 -456)"/><path class="cls-1" d="M951,499.18a43,43,0,0,0-3.89-17.91l-158,110.65,157,208.91a42.9,42.9,0,0,0,4.92-20Z" transform="translate(-329 -456)"/><path class="cls-1" d="M766.14,608,664.41,679.22h0l-24.31,17,.09.21-16.58-11.61-8-5.62h0l-104-72.81L351.89,818.94A42.93,42.93,0,0,0,372.18,824H907.82a43,43,0,0,0,17.77-3.83Z" transform="translate(-329 -456)"/><path class="cls-1" d="M332.89,481.27A43,43,0,0,0,329,499.18V780.82A43,43,0,0,0,332.58,798L488.66,590.35Z" transform="translate(-329 -456)"/></svg>