<svg id="Layer_1" data-name="Layer 1" xmlns="http://www.w3.org/2000/svg" viewBox="0 0 490 450">
    <defs>
        <style>.cls-1,.cls-2{fill:none;stroke:#fff;stroke-width:20px;}.cls-1{stroke-linecap:round;stroke-linejoin:round;}.cls-2{stroke-miterlimit:10;}
        </style>
    </defs>
    <path class="cls-1" d="M837.45,463.78c-50.05-51.71-131.21-51.71-181.27,0A132.82,132.82,0,0,0,640,484.24a132.21,132.21,0,0,0-16.18-20.46c-50.06-51.71-131.21-51.71-181.27,0s-50.07,135.54,0,187.25L640,855,837.45,651C887.52,599.32,887.52,515.48,837.45,463.78Z" transform="translate(-395 -415)"/>
    <polyline class="cls-2" points="26.94 207.89 120.2 207.89 168.4 136.61 215.62 207.89 263.33 279.18 347 172.25 378 208 462.37 207.89"/>
</svg>