<svg id="Layer_1" data-name="Layer 1" xmlns="http://www.w3.org/2000/svg" viewBox="0 0 744 704"><defs><style>.cls-1{fill:#fff;}.cls-2{fill:none;stroke:blue;stroke-miterlimit:10;}</style></defs><path class="cls-1" d="M676.1,658.25,639.35,791,550.24,437,496.78,659.68H332.35C399.31,781.63,513.47,931,640,992c127-61.21,241.58-211.54,308.43-333.75Z" transform="translate(-268 -288)"/><path class="cls-1" d="M826,288c-65.5,0-139.74,42.69-186,105-46.26-62.3-120.5-105-186-105-102.72,0-186,83.28-186,186a187.05,187.05,0,0,0,2.92,33c3.65,28.65,21.68,76.7,50.5,132.21L486.5,640.5,550.24,392l89.11,354L670.5,639.5H958.43c28.91-55.63,47-103.78,50.65-132.48a187.05,187.05,0,0,0,2.92-33C1012,371.28,928.72,288,826,288Z" transform="translate(-268 -288)"/><path class="cls-2" d="M492.5,639.5" transform="translate(-268 -288)"/></svg>