<svg id="Layer_1" data-name="Layer 1" xmlns="http://www.w3.org/2000/svg" viewBox="0 0 470 430">
<defs>
<style>.cls-1{fill:#0006f4;}.cls-2{fill:#fff;}.cls-3{fill:#424242;}</style>
</defs>
<path class="cls-1" d="M140,150.18"/>
<path class="cls-2" d="M232.61.9,1.13,208.52a3.37,3.37,0,0,0,2.38,5.86H31.16a3.45,3.45,0,0,1,3.5,3.38V426.62a3.44,3.44,0,0,0,3.5,3.38h156.5a3.44,3.44,0,0,0,3.51-3.38V285.45a3.44,3.44,0,0,1,3.5-3.38h67.56a3.44,3.44,0,0,1,3.5,3.38V426.62a3.44,3.44,0,0,0,3.51,3.38h155.6a3.44,3.44,0,0,0,3.5-3.38V217.76a3.45,3.45,0,0,1,3.5-3.38h27.65a3.37,3.37,0,0,0,2.38-5.86L237.39.9A3.62,3.62,0,0,0,232.61.9Zm187.7,206.23V415a3.44,3.44,0,0,1-3.5,3.39H291.59a3.45,3.45,0,0,1-3.5-3.39V274.81a3.44,3.44,0,0,0-3.5-3.38H186.42a3.44,3.44,0,0,0-3.51,3.38V415a3.45,3.45,0,0,1-3.5,3.39H53.19a3.44,3.44,0,0,1-3.5-3.39V207.13a3.44,3.44,0,0,0-3.51-3.38H33.7a3.37,3.37,0,0,1-2.39-5.86L232.61,17.34a3.62,3.62,0,0,1,4.78,0l201.3,180.55a3.37,3.37,0,0,1-2.39,5.86H423.82A3.44,3.44,0,0,0,420.31,207.13Z"/>
<line class="cls-3" x1="140" y1="150.18" x2="125" y2="150.18"/>
</svg>