<svg id="Layer_1" data-name="Layer 1" xmlns="http://www.w3.org/2000/svg" viewBox="0 0 729.6 432.36"><defs><style>.cls-1{fill:#0006f4;}.cls-2{fill:#424242;}.cls-3{fill:#fff;}</style></defs><path class="cls-1" d="M545,569" transform="translate(-145 -417.64)"/><path class="cls-2" d="M145,569" transform="translate(-145 -417.64)"/><path class="cls-2" d="M171.2,507.49" transform="translate(-145 -417.64)"/><path class="cls-2" d="M135,555" transform="translate(-145 -417.64)"/><line class="cls-2" y1="151.36" x2="15" y2="151.36"/><path class="cls-3" d="M637.62,418.55,406.52,627.31a3.39,3.39,0,0,0,2.38,5.89h27.6a3.45,3.45,0,0,1,3.5,3.4v210a3.45,3.45,0,0,0,3.5,3.4H599.73a3.45,3.45,0,0,0,3.5-3.4v-142a3.45,3.45,0,0,1,3.5-3.4h67.44a3.46,3.46,0,0,1,3.5,3.4v142a3.45,3.45,0,0,0,3.5,3.4H836.5a3.45,3.45,0,0,0,3.5-3.4v-210a3.45,3.45,0,0,1,3.5-3.4h27.6a3.39,3.39,0,0,0,2.38-5.89L642.38,418.55A3.57,3.57,0,0,0,637.62,418.55ZM825,625.91v209a3.45,3.45,0,0,1-3.5,3.4h-125a3.45,3.45,0,0,1-3.5-3.4V694a3.45,3.45,0,0,0-3.5-3.4h-98A3.45,3.45,0,0,0,588,694v141a3.45,3.45,0,0,1-3.5,3.4h-126a3.45,3.45,0,0,1-3.5-3.4v-209a3.46,3.46,0,0,0-3.5-3.41H439a3.39,3.39,0,0,1-2.38-5.89l201-181.53a3.55,3.55,0,0,1,4.76,0l201,181.53A3.39,3.39,0,0,1,841,622.5H828.5A3.46,3.46,0,0,0,825,625.91Z" transform="translate(-145 -417.64)"/><line class="cls-2" x1="400" y1="151.36" x2="385" y2="151.36"/></svg>