<svg id="Layer_1" data-name="Layer 1" xmlns="http://www.w3.org/2000/svg" viewBox="0 0 406 593"><defs><style>.cls-1{fill:#424242;}</style></defs><path class="cls-1" d="M794,373v95H756V381.32h-.75A115.63,115.63,0,0,0,646.66,265.91C580,261.9,524,315.77,524,382.59V468H485V374.69c0-89,74.54-160.74,163.37-155.41A154,154,0,0,1,793,373Z" transform="translate(-437 -219)"/><path class="cls-1" d="M807.31,468H472.69A35.69,35.69,0,0,0,437,503.69V776.31A35.69,35.69,0,0,0,472.69,812H807.31A35.69,35.69,0,0,0,843,776.31V503.69A35.69,35.69,0,0,0,807.31,468ZM654,635.31V687a15,15,0,0,1-30,0V635.31a43,43,0,1,1,30,0Z" transform="translate(-437 -219)"/><path d="M640,595" transform="translate(-437 -219)"/></svg>