<svg id="Layer_1" data-name="Layer 1" xmlns="http://www.w3.org/2000/svg" xmlns:xlink="http://www.w3.org/1999/xlink" viewBox="0 0 713.87 468.24"><defs><style>.cls-1{fill:#1400fb;}.cls-2{opacity:0.5;}.cls-3{fill:#07ff28;}.cls-4{fill:url(#linear-gradient);}.cls-5{fill:url(#linear-gradient-2);}.cls-6{fill:url(#linear-gradient-3);}</style><linearGradient id="linear-gradient" y1="189.46" x2="333.18" y2="189.46" gradientUnits="userSpaceOnUse"><stop offset="0" stop-color="#757575"/><stop offset="1"/></linearGradient><linearGradient id="linear-gradient-2" x1="299.45" y1="219.23" x2="552.59" y2="219.23" gradientUnits="userSpaceOnUse"><stop offset="0" stop-color="#545454"/><stop offset="1" stop-color="#1c1c1c"/></linearGradient><linearGradient id="linear-gradient-3" x1="518.86" y1="259.83" x2="713.87" y2="259.83" gradientUnits="userSpaceOnUse"><stop offset="0"/><stop offset="1" stop-color="#636363"/></linearGradient></defs><path class="cls-1" d="M356.94,219.23"/><g class="cls-2"><polygon class="cls-3" points="414.47 468.21 414.47 468.24 408.84 458.46 414.47 468.21"/></g><polygon class="cls-4" points="333.18 198.15 275.69 297.73 218.77 199.13 114.97 378.92 0 378.92 161.28 99.57 218.77 0 333.18 198.15"/><polygon class="cls-5" points="495.1 0.01 356.94 239.31 356.94 239.31 299.45 338.88 343.52 415.2 351.31 428.7 356.94 438.45 362.56 428.71 370.35 415.21 552.59 99.57 495.1 0.01"/><polygon class="cls-6" points="576.35 140.73 518.86 240.29 598.9 378.93 713.87 378.93 576.35 140.73"/></svg>